<svg width="136" height="20" viewBox="0 0 136 20" fill="none" xmlns="http://www.w3.org/2000/svg">
<path fill-rule="evenodd" clip-rule="evenodd" d="M41.0644 19.9297C41.0332 19.8907 45.439 3.25654 46.2514 0.327997L46.3451 0H49.3604L49.4776 0.406091C49.6026 0.827802 54.5474 19.3909 54.6411 19.7735L54.6958 19.9922H53.6412C52.7038 19.9922 52.5867 19.9766 52.5554 19.8594C52.5468 19.8306 52.3961 19.2658 52.1444 18.3226L52.1431 18.3178L52.1423 18.3145L52.1395 18.3041L52.1363 18.292C51.7063 16.6806 50.9879 13.9881 50.1807 10.9801C48.8995 6.17727 47.845 2.27255 47.8293 2.3116C47.8215 2.35064 46.7748 6.2788 45.5014 11.0504L44.5995 14.4312L44.5986 14.4346C43.7645 17.5614 43.1677 19.7989 43.1501 19.8516C43.1111 19.9766 42.9939 19.9922 42.1034 19.9922C41.5487 19.9922 41.08 19.9688 41.0644 19.9297ZM0.146724 4.12398C0.709167 1.92952 2.56054 0.320774 4.8025 0.0786809C5.55242 0.000586435 13.5282 -0.0150325 13.6532 0.063062C13.7235 0.117728 13.7469 0.37544 13.7313 1.10172L13.7078 2.07009L9.21611 2.10914L9.20052 2.10927C4.74776 2.14819 4.72386 2.14839 4.27911 2.3278C2.83395 2.91351 1.96685 4.20207 2.04497 5.65463C2.07621 6.41214 2.48242 7.24776 3.11517 7.88032C4.09944 8.8565 4.60721 8.98145 7.73189 8.98145C10.341 8.98145 10.5519 9.01269 11.6299 9.53592C12.8329 10.1294 13.8641 11.3555 14.3406 12.769C14.614 13.5656 14.6765 14.7604 14.5046 15.5961C14.075 17.6187 12.8251 19.0791 10.9737 19.7351L10.3488 19.9537L5.43525 19.9772C1.4669 19.9928 0.506062 19.9772 0.459192 19.8991C0.381075 19.7819 0.365452 18.2669 0.435757 18.0873C0.482627 17.9779 0.951329 17.9623 5.0056 17.9623C8.02873 17.9623 9.66138 17.9311 9.93478 17.8764C11.1768 17.6109 12.1064 16.6738 12.458 15.3305C12.872 13.753 12.0361 12.0037 10.5441 11.2931L10.0363 11.051L7.30224 11.0041C4.26349 10.9494 4.16975 10.9338 3.08392 10.395C1.63876 9.67649 0.513874 8.29422 0.123289 6.74795C-0.0485684 6.06853 -0.0407567 4.85806 0.146724 4.12398ZM62.7418 9.97267L62.7652 19.9531H64.7181L64.7572 11.0348L64.7963 2.10855L69.9989 11.0348L75.1936 19.9531L76.4201 19.9766L77.6465 20L77.6309 10.0195L77.6075 0.0390472H75.5764L75.5374 8.16868L75.4983 16.2983L70.7253 8.16868L65.9602 0.0390472L64.3432 0.0156189L62.7262 0L62.7418 9.97267ZM111.206 19.8672C111.143 19.7111 111.143 0.28114 111.206 0.124951C111.245 0.0234284 111.409 0 112.221 0H113.19V19.9922H112.221C111.409 19.9922 111.245 19.9688 111.206 19.8672ZM120.611 0.976181V1.95236H127.329L127.345 10.9488L127.368 19.9531L128.259 19.9766C128.844 19.9922 129.18 19.9688 129.251 19.9063C129.344 19.8282 129.36 18.4225 129.36 10.8864V1.95236H136V0H120.611V0.976181ZM21.3788 4.06042C22.449 2.10025 24.316 0.608645 26.2065 0.194744C26.5658 0.11665 27.6282 0.0932214 30.7763 0.101031L34.8774 0.11665V2.06901L30.7372 2.10806L30.6958 2.10845C26.6513 2.14711 26.5878 2.14772 26.1596 2.32672C24.0661 3.17014 22.5896 5.37241 22.1366 8.31657C21.9803 9.30056 22.0272 11.5184 22.2147 12.4946C22.6834 14.8843 23.8239 16.6649 25.3862 17.4536C26.3705 17.9534 26.4721 17.9612 30.956 17.9612H35.0024L34.979 18.953L34.9556 19.9527H30.6201C26.3236 19.9527 26.2768 19.9527 25.6596 19.773C22.8631 18.9687 21.0039 16.6883 20.2618 13.1741C20.0118 11.9714 19.918 9.60513 20.0743 8.29314C20.2461 6.78592 20.7148 5.26308 21.3788 4.06042ZM87.2706 10.0117L87.2941 19.9532L91.5514 19.9766C95.9807 20 96.7697 19.961 97.7774 19.672C101.519 18.6021 103.667 14.7052 103.48 9.30108C103.417 7.55958 103.136 6.32568 102.457 4.90436C101.535 2.952 99.7693 1.2183 98.0273 0.546692C96.84 0.0937439 96.6681 0.078125 91.7389 0.078125H87.255L87.2706 10.0117ZM101.066 7.02738C100.238 4.42683 98.3398 2.52913 96.2385 2.19333C95.9416 2.14647 94.3871 2.10742 92.5123 2.10742H89.2861V17.9684L92.9029 17.945L92.9081 17.9449C96.8947 17.9059 96.9186 17.9057 97.9961 17.3749C99.0663 16.8517 99.8553 16.0004 100.465 14.7197C101.097 13.3921 101.379 12.1035 101.449 10.2605C101.504 8.87821 101.41 8.10508 101.066 7.02738Z" fill="#16191C"/>
</svg>
