<svg preserveAspectRatio="none" width="100%" height="100%" overflow="visible" style="display: block;" viewBox="0 0 24 24" fill="none" xmlns="http://www.w3.org/2000/svg">
<g id="east">
<mask id="mask0_0_708" style="mask-type:alpha" maskUnits="userSpaceOnUse" x="0" y="0" width="24" height="24">
<rect id="Bounding box" width="24" height="24" fill="var(--fill-0, #D9D9D9)"/>
</mask>
<g mask="url(#mask0_0_708)">
<path id="east_2" d="M18.175 13H3C2.71667 13 2.47917 12.9042 2.2875 12.7125C2.09583 12.5208 2 12.2833 2 12C2 11.7167 2.09583 11.4792 2.2875 11.2875C2.47917 11.0958 2.71667 11 3 11H18.175L14.3 7.1C14.1167 6.91667 14.0208 6.6875 14.0125 6.4125C14.0042 6.1375 14.1 5.9 14.3 5.7C14.4833 5.51667 14.7167 5.425 15 5.425C15.2833 5.425 15.5167 5.51667 15.7 5.7L21.3 11.3C21.4 11.4 21.4708 11.5083 21.5125 11.625C21.5542 11.7417 21.575 11.8667 21.575 12C21.575 12.1333 21.5542 12.2583 21.5125 12.375C21.4708 12.4917 21.4 12.6 21.3 12.7L15.7 18.3C15.5167 18.4833 15.2875 18.575 15.0125 18.575C14.7375 18.575 14.5 18.4833 14.3 18.3C14.1 18.1 14 17.8625 14 17.5875C14 17.3125 14.1 17.075 14.3 16.875L18.175 13Z" fill="var(--fill-0, #16191C)"/>
</g>
</g>
</svg>
