<svg preserveAspectRatio="none" width="100%" height="100%" overflow="visible" style="display: block;" viewBox="0 0 24 24" fill="none" xmlns="http://www.w3.org/2000/svg">
<g id="arrow_triangle_right">
<mask id="mask0_arrow_tr" style="mask-type:alpha" maskUnits="userSpaceOnUse" x="0" y="0" width="24" height="24">
<rect id="Bounding box" width="24" height="24" fill="var(--fill-0, #D9D9D9)"/>
</mask>
<g mask="url(#mask0_arrow_tr)">
<path id="arrow_triangle_right_2" d="M10.5 16.3C10.367 16.3 10.25 16.2542 10.15 16.1625C10.05 16.0708 10 15.95 10 15.8V8.20001C10 8.05001 10.05 7.92918 10.15 7.83751C10.25 7.74585 10.367 7.70001 10.5 7.70001C10.533 7.70001 10.65 7.75001 10.85 7.85001L14.475 11.475C14.558 11.5583 14.617 11.6417 14.65 11.725C14.683 11.8083 14.7 11.9 14.7 12C14.7 12.1 14.683 12.1917 14.65 12.275C14.617 12.3583 14.558 12.4417 14.475 12.525L10.85 16.15C10.8 16.2 10.746 16.2375 10.688 16.2625C10.629 16.2875 10.567 16.3 10.5 16.3Z" fill="var(--fill-0, #16191C)"/>
</g>
</g>
</svg>
