<svg preserveAspectRatio="none" width="100%" height="100%" overflow="visible" style="display: block;" viewBox="0 0 24 24" fill="none" xmlns="http://www.w3.org/2000/svg">
<g id="arrow_triangle_up">
<mask id="mask0_arrow_tu" style="mask-type:alpha" maskUnits="userSpaceOnUse" x="0" y="0" width="24" height="24">
<rect id="Bounding box" width="24" height="24" fill="var(--fill-0, #D9D9D9)"/>
</mask>
<g mask="url(#mask0_arrow_tu)">
<path id="arrow_triangle_up_2" d="M8.2 14C8.05 14 7.9292 13.95 7.8375 13.85C7.7458 13.75 7.7 13.6333 7.7 13.5C7.7 13.4667 7.75 13.35 7.85 13.15L11.475 9.52499C11.5583 9.44165 11.6417 9.38332 11.725 9.34999C11.8083 9.31665 11.9 9.29999 12 9.29999C12.1 9.29999 12.192 9.31665 12.275 9.34999C12.358 9.38332 12.442 9.44165 12.525 9.52499L16.15 13.15C16.2 13.2 16.237 13.2542 16.262 13.3125C16.287 13.3708 16.3 13.4333 16.3 13.5C16.3 13.6333 16.254 13.75 16.162 13.85C16.071 13.95 15.95 14 15.8 14H8.2Z" fill="var(--fill-0, #16191C)"/>
</g>
</g>
</svg>
