<svg preserveAspectRatio="none" width="100%" height="100%" overflow="visible" style="display: block;" viewBox="0 0 24 24" fill="none" xmlns="http://www.w3.org/2000/svg">
<g id="west">
<mask id="mask0_0_470" style="mask-type:alpha" maskUnits="userSpaceOnUse" x="0" y="0" width="24" height="24">
<rect id="Bounding box" width="24" height="24" fill="var(--fill-0, #D9D9D9)"/>
</mask>
<g mask="url(#mask0_0_470)">
<path id="west_2" d="M5.825 13H21C21.2833 13 21.5208 12.9042 21.7125 12.7125C21.9042 12.5208 22 12.2833 22 12C22 11.7167 21.9042 11.4792 21.7125 11.2875C21.5208 11.0958 21.2833 11 21 11H5.825L9.7 7.1C9.88333 6.91667 9.97917 6.6875 9.9875 6.4125C9.99583 6.1375 9.9 5.9 9.7 5.7C9.51667 5.51667 9.28333 5.425 9 5.425C8.71667 5.425 8.48333 5.51667 8.3 5.7L2.7 11.3C2.6 11.4 2.52917 11.5083 2.4875 11.625C2.44583 11.7417 2.425 11.8667 2.425 12C2.425 12.1333 2.44583 12.2583 2.4875 12.375C2.52917 12.4917 2.6 12.6 2.7 12.7L8.3 18.3C8.48333 18.4833 8.7125 18.575 8.9875 18.575C9.2625 18.575 9.5 18.4833 9.7 18.3C9.9 18.1 10 17.8625 10 17.5875C10 17.3125 9.9 17.075 9.7 16.875L5.825 13Z" fill="var(--fill-0, #16191C)"/>
</g>
</g>
</svg>
