<svg preserveAspectRatio="none" width="100%" height="100%" overflow="visible" style="display: block;" viewBox="0 0 24 24" fill="none" xmlns="http://www.w3.org/2000/svg">
<g id="close_small">
<mask id="mask0_0_430" style="mask-type:alpha" maskUnits="userSpaceOnUse" x="0" y="0" width="24" height="24">
<rect id="Bounding box" width="24" height="24" fill="var(--fill-0, #D9D9D9)"/>
</mask>
<g mask="url(#mask0_0_430)">
<path id="close_small_2" d="M12 13.4L9.08325 16.325C8.89875 16.5083 8.664 16.6 8.379 16.6C8.094 16.6 7.85933 16.5083 7.675 16.325C7.49167 16.1417 7.4 15.9083 7.4 15.625C7.4 15.3417 7.49167 15.1083 7.675 14.925L10.6 12L7.675 9.10825C7.49167 8.92375 7.4 8.689 7.4 8.404C7.4 8.119 7.49167 7.88433 7.675 7.7C7.85833 7.51667 8.09167 7.425 8.375 7.425C8.65833 7.425 8.89167 7.51667 9.075 7.7L12 10.625L14.8917 7.7C15.0762 7.51667 15.311 7.425 15.596 7.425C15.881 7.425 16.1157 7.51667 16.3 7.7C16.5 7.9 16.6 8.1375 16.6 8.4125C16.6 8.6875 16.5 8.91667 16.3 9.1L13.375 12L16.3 14.9167C16.4833 15.1012 16.575 15.336 16.575 15.621C16.575 15.906 16.4833 16.1407 16.3 16.325C16.1 16.525 15.8625 16.625 15.5875 16.625C15.3125 16.625 15.0833 16.525 14.9 16.325L12 13.4Z" fill="var(--fill-0, #16191C)"/>
</g>
</g>
</svg>
