<svg preserveAspectRatio="none" width="100%" height="100%" overflow="visible" style="display: block;" viewBox="0 0 24 24" fill="none" xmlns="http://www.w3.org/2000/svg">
<g id="drag_handle">
<mask id="mask0_0_478" style="mask-type:alpha" maskUnits="userSpaceOnUse" x="0" y="0" width="24" height="24">
<rect id="Bounding box" width="24" height="24" fill="var(--fill-0, #D9D9D9)"/>
</mask>
<g mask="url(#mask0_0_478)">
<path id="drag_handle_2" d="M5.00004 15C4.71671 15 4.47921 14.9042 4.28754 14.7125C4.09587 14.5209 4.00004 14.2834 4.00004 14C4.00004 13.7167 4.09587 13.4792 4.28754 13.2875C4.47921 13.0959 4.71671 13 5.00004 13H19C19.2834 13 19.5209 13.0959 19.7125 13.2875C19.9042 13.4792 20 13.7167 20 14C20 14.2834 19.9042 14.5209 19.7125 14.7125C19.5209 14.9042 19.2834 15 19 15H5.00004ZM5.00004 11C4.71671 11 4.47921 10.9042 4.28754 10.7125C4.09587 10.5209 4.00004 10.2834 4.00004 10C4.00004 9.71671 4.09587 9.47921 4.28754 9.28754C4.47921 9.09587 4.71671 9.00004 5.00004 9.00004H19C19.2834 9.00004 19.5209 9.09587 19.7125 9.28754C19.9042 9.47921 20 9.71671 20 10C20 10.2834 19.9042 10.5209 19.7125 10.7125C19.5209 10.9042 19.2834 11 19 11H5.00004Z" fill="var(--fill-0, #16191C)"/>
</g>
</g>
</svg>
