<svg preserveAspectRatio="none" width="100%" height="100%" overflow="visible" style="display: block;" viewBox="0 0 24 24" fill="none" xmlns="http://www.w3.org/2000/svg">
<g id="flash_on">
<mask id="mask0_0_690" style="mask-type:alpha" maskUnits="userSpaceOnUse" x="0" y="0" width="24" height="24">
<rect id="Bounding box" width="24" height="24" fill="var(--fill-0, #D9D9D9)"/>
</mask>
<g mask="url(#mask0_0_690)">
<path id="flash_on_2" d="M10.525 20.325C10.375 20.275 10.25 20.1875 10.15 20.0625C10.05 19.9375 10 19.7833 10 19.6V14H9C8.45 14 7.97917 13.8042 7.5875 13.4125C7.19583 13.0208 7 12.55 7 12V4C7 3.45 7.19583 2.97917 7.5875 2.5875C7.97917 2.19583 8.45 2 9 2H14.85C15.3833 2 15.8125 2.20833 16.1375 2.625C16.4625 3.04167 16.5583 3.5 16.425 4L15 9H16.125C16.725 9 17.1708 9.26667 17.4625 9.8C17.7542 10.3333 17.725 10.85 17.375 11.35L11.375 20.025C11.275 20.175 11.1458 20.275 10.9875 20.325C10.8292 20.375 10.675 20.375 10.525 20.325Z" fill="var(--fill-0, #16191C)"/>
</g>
</g>
</svg>
