<svg preserveAspectRatio="none" width="100%" height="100%" overflow="visible" style="display: block;" viewBox="0 0 24 24" fill="none" xmlns="http://www.w3.org/2000/svg">
<g id="flash_off">
<mask id="mask0_0_633" style="mask-type:alpha" maskUnits="userSpaceOnUse" x="0" y="0" width="24" height="24">
<rect id="Bounding box" width="24" height="24" fill="var(--fill-0, #D9D9D9)"/>
</mask>
<g mask="url(#mask0_0_633)">
<path id="flash_off_2" d="M15.225 12.375L7.45 4.6C7.3 4.45 7.19167 4.29583 7.125 4.1375C7.05833 3.97917 7.025 3.80833 7.025 3.625C7.025 3.20833 7.19167 2.83333 7.525 2.5C7.85833 2.16667 8.26667 2 8.75 2H14.85C15.3833 2 15.8125 2.20833 16.1375 2.625C16.4625 3.04167 16.5583 3.5 16.425 4L15 9H16.125C16.7417 9 17.1875 9.26667 17.4625 9.8C17.7375 10.3333 17.7083 10.85 17.375 11.35L16.75 12.25C16.5667 12.5 16.325 12.6417 16.025 12.675C15.725 12.7083 15.4583 12.6083 15.225 12.375ZM19.075 21.9L13.75 16.6L11.375 20.025C11.2917 20.1583 11.1708 20.2542 11.0125 20.3125C10.8542 20.3708 10.6917 20.375 10.525 20.325C10.3583 20.275 10.2292 20.1833 10.1375 20.05C10.0458 19.9167 10 19.7667 10 19.6V14H9C8.45 14 7.97917 13.8042 7.5875 13.4125C7.19583 13.0208 7 12.55 7 12V9.85L2.075 4.925C1.875 4.725 1.77917 4.4875 1.7875 4.2125C1.79583 3.9375 1.9 3.7 2.1 3.5C2.3 3.3 2.5375 3.2 2.8125 3.2C3.0875 3.2 3.325 3.3 3.525 3.5L20.5 20.5C20.7 20.7 20.8 20.9333 20.8 21.2C20.8 21.4667 20.7 21.7 20.5 21.9C20.3 22.1 20.0625 22.2 19.7875 22.2C19.5125 22.2 19.275 22.1 19.075 21.9Z" fill="var(--fill-0, #16191C)"/>
</g>
</g>
</svg>
