<svg preserveAspectRatio="none" width="100%" height="100%" overflow="visible" style="display: block;" viewBox="0 0 24 24" fill="none" xmlns="http://www.w3.org/2000/svg">
<g id="question_mark">
<mask id="mask0_0_445" style="mask-type:alpha" maskUnits="userSpaceOnUse" x="0" y="0" width="24" height="24">
<rect id="Bounding box" width="24" height="24" fill="var(--fill-0, #D9D9D9)"/>
</mask>
<g mask="url(#mask0_0_445)">
<path id="question_mark_2" d="M14.6 8.075C14.6 7.35833 14.3625 6.78333 13.8875 6.35C13.4125 5.91667 12.7833 5.7 12 5.7C11.5167 5.7 11.0792 5.80417 10.6875 6.0125C10.2958 6.22083 9.95833 6.525 9.675 6.925C9.40833 7.30833 9.04583 7.52917 8.5875 7.5875C8.12917 7.64583 7.73333 7.525 7.4 7.225C7.16667 7.00833 7.0375 6.74167 7.0125 6.425C6.9875 6.10833 7.06667 5.80833 7.25 5.525C7.78333 4.725 8.4625 4.10417 9.2875 3.6625C10.1125 3.22083 11.0167 3 12 3C13.6167 3 14.9292 3.45833 15.9375 4.375C16.9458 5.29167 17.45 6.49167 17.45 7.975C17.45 8.725 17.2917 9.4 16.975 10C16.6583 10.6 16.075 11.3083 15.225 12.125C14.6083 12.7083 14.1917 13.1625 13.975 13.4875C13.7583 13.8125 13.6167 14.1833 13.55 14.6C13.4833 15 13.3125 15.3333 13.0375 15.6C12.7625 15.8667 12.4333 16 12.05 16C11.6667 16 11.3375 15.8708 11.0625 15.6125C10.7875 15.3542 10.65 15.0333 10.65 14.65C10.65 14 10.7917 13.4042 11.075 12.8625C11.3583 12.3208 11.8333 11.75 12.5 11.15C13.35 10.4 13.9125 9.82083 14.1875 9.4125C14.4625 9.00417 14.6 8.55833 14.6 8.075ZM12 22C11.45 22 10.9792 21.8042 10.5875 21.4125C10.1958 21.0208 10 20.55 10 20C10 19.45 10.1958 18.9792 10.5875 18.5875C10.9792 18.1958 11.45 18 12 18C12.55 18 13.0208 18.1958 13.4125 18.5875C13.8042 18.9792 14 19.45 14 20C14 20.55 13.8042 21.0208 13.4125 21.4125C13.0208 21.8042 12.55 22 12 22Z" fill="var(--fill-0, #16191C)"/>
</g>
</g>
</svg>
