<svg preserveAspectRatio="none" width="100%" height="100%" overflow="visible" style="display: block;" viewBox="0 0 22 18" fill="none" xmlns="http://www.w3.org/2000/svg">
<g id="scan">
<path d="M4 18C3.45 18 2.97917 17.8042 2.5875 17.4125C2.19583 17.0208 2 16.55 2 16V13C2 12.7167 2.09583 12.4792 2.2875 12.2875C2.47917 12.0958 2.71667 12 3 12C3.28333 12 3.52083 12.0958 3.7125 12.2875C3.90417 12.4792 4 12.7167 4 13V16H7C7.28333 16 7.52083 16.0958 7.7125 16.2875C7.90417 16.4792 8 16.7167 8 17C8 17.2833 7.90417 17.5208 7.7125 17.7125C7.52083 17.9042 7.28333 18 7 18H4ZM18 18H15C14.7167 18 14.4792 17.9042 14.2875 17.7125C14.0958 17.5208 14 17.2833 14 17C14 16.7167 14.0958 16.4792 14.2875 16.2875C14.4792 16.0958 14.7167 16 15 16H18V13C18 12.7167 18.0958 12.4792 18.2875 12.2875C18.4792 12.0958 18.7167 12 19 12C19.2833 12 19.5208 12.0958 19.7125 12.2875C19.9042 12.4792 20 12.7167 20 13V16C20 16.55 19.8042 17.0208 19.4125 17.4125C19.0208 17.8042 18.55 18 18 18ZM2 5V2C2 1.45 2.19583 0.979167 2.5875 0.5875C2.97917 0.195833 3.45 0 4 0H7C7.28333 0 7.52083 0.0958333 7.7125 0.2875C7.90417 0.479167 8 0.716667 8 1C8 1.28333 7.90417 1.52083 7.7125 1.7125C7.52083 1.90417 7.28333 2 7 2H4V5C4 5.28333 3.90417 5.52083 3.7125 5.7125C3.52083 5.90417 3.28333 6 3 6C2.71667 6 2.47917 5.90417 2.2875 5.7125C2.09583 5.52083 2 5.28333 2 5ZM18 5V2H15C14.7167 2 14.4792 1.90417 14.2875 1.7125C14.0958 1.52083 14 1.28333 14 1C14 0.716667 14.0958 0.479167 14.2875 0.2875C14.4792 0.0958333 14.7167 0 15 0H18C18.55 0 19.0208 0.195833 19.4125 0.5875C19.8042 0.979167 20 1.45 20 2V5C20 5.28333 19.9042 5.52083 19.7125 5.7125C19.5208 5.90417 19.2833 6 19 6C18.7167 6 18.4792 5.90417 18.2875 5.7125C18.0958 5.52083 18 5.28333 18 5Z" fill="var(--fill-0, #16191C)"/>
<path d="M21 8C21.5523 8 22 8.44772 22 9C22 9.55228 21.5523 10 21 10H1C0.447715 10 0 9.55228 0 9C0 8.44772 0.447715 8 1 8H21Z" fill="var(--fill-0, #16191C)"/>
</g>
</svg>
