<svg preserveAspectRatio="none" width="100%" height="100%" overflow="visible" style="display: block;" viewBox="0 0 20 20" fill="none" xmlns="http://www.w3.org/2000/svg">
<path id="view_in_ar" d="M9 17.475L4 14.6C3.68333 14.4167 3.4375 14.175 3.2625 13.875C3.0875 13.575 3 13.2417 3 12.875V7.125C3 6.75833 3.0875 6.425 3.2625 6.125C3.4375 5.825 3.68333 5.58333 4 5.4L9 2.525C9.31667 2.34167 9.65 2.25 10 2.25C10.35 2.25 10.6833 2.34167 11 2.525L16 5.4C16.3167 5.58333 16.5625 5.825 16.7375 6.125C16.9125 6.425 17 6.75833 17 7.125V12.875C17 13.2417 16.9125 13.575 16.7375 13.875C16.5625 14.175 16.3167 14.4167 16 14.6L11 17.475C10.6833 17.6583 10.35 17.75 10 17.75C9.65 17.75 9.31667 17.6583 9 17.475ZM9 15.175V10.575L5 8.25V12.875L9 15.175ZM11 15.175L15 12.875V8.25L11 10.575V15.175ZM1 6C0.716667 6 0.479167 5.90417 0.2875 5.7125C0.0958333 5.52083 0 5.28333 0 5V2C0 1.45 0.195833 0.979167 0.5875 0.5875C0.979167 0.195833 1.45 0 2 0H5C5.28333 0 5.52083 0.0958333 5.7125 0.2875C5.90417 0.479167 6 0.716667 6 1C6 1.28333 5.90417 1.52083 5.7125 1.7125C5.52083 1.90417 5.28333 2 5 2H2V5C2 5.28333 1.90417 5.52083 1.7125 5.7125C1.52083 5.90417 1.28333 6 1 6ZM2 20C1.45 20 0.979167 19.8042 0.5875 19.4125C0.195833 19.0208 0 18.55 0 18V15C0 14.7167 0.0958333 14.4792 0.2875 14.2875C0.479167 14.0958 0.716667 14 1 14C1.28333 14 1.52083 14.0958 1.7125 14.2875C1.90417 14.4792 2 14.7167 2 15V18H5C5.28333 18 5.52083 18.0958 5.7125 18.2875C5.90417 18.4792 6 18.7167 6 19C6 19.2833 5.90417 19.5208 5.7125 19.7125C5.52083 19.9042 5.28333 20 5 20H2ZM18 20H15C14.7167 20 14.4792 19.9042 14.2875 19.7125C14.0958 19.5208 14 19.2833 14 19C14 18.7167 14.0958 18.4792 14.2875 18.2875C14.4792 18.0958 14.7167 18 15 18H18V15C18 14.7167 18.0958 14.4792 18.2875 14.2875C18.4792 14.0958 18.7167 14 19 14C19.2833 14 19.5208 14.0958 19.7125 14.2875C19.9042 14.4792 20 14.7167 20 15V18C20 18.55 19.8042 19.0208 19.4125 19.4125C19.0208 19.8042 18.55 20 18 20ZM18 5V2H15C14.7167 2 14.4792 1.90417 14.2875 1.7125C14.0958 1.52083 14 1.28333 14 1C14 0.716667 14.0958 0.479167 14.2875 0.2875C14.4792 0.0958333 14.7167 0 15 0H18C18.55 0 19.0208 0.195833 19.4125 0.5875C19.8042 0.979167 20 1.45 20 2V5C20 5.28333 19.9042 5.52083 19.7125 5.7125C19.5208 5.90417 19.2833 6 19 6C18.7167 6 18.4792 5.90417 18.2875 5.7125C18.0958 5.52083 18 5.28333 18 5ZM10 8.85L13.95 6.525L10 4.25L6.05 6.525L10 8.85Z" fill="var(--fill-0, #16191C)"/>
</svg>
