<svg preserveAspectRatio="none" width="100%" height="100%" overflow="visible" style="display: block;" viewBox="0 0 21.475 18.95" fill="none" xmlns="http://www.w3.org/2000/svg">
<path id="visibility_off" d="M17.825 18.675L14.325 15.225C13.7417 15.4083 13.15 15.5458 12.55 15.6375C11.95 15.7292 11.3417 15.775 10.725 15.775C8.49167 15.775 6.45 15.175 4.6 13.975C2.75 12.775 1.3 11.1917 0.25 9.225C0.166667 9.075 0.104167 8.92083 0.0625 8.7625C0.0208333 8.60417 0 8.44167 0 8.275C0 8.10833 0.0208333 7.94583 0.0625 7.7875C0.104167 7.62917 0.166667 7.475 0.25 7.325C0.616667 6.675 1.00833 6.04167 1.425 5.425C1.84167 4.80833 2.325 4.25833 2.875 3.775L0.8 1.675C0.616667 1.49167 0.525 1.2625 0.525 0.9875C0.525 0.7125 0.625 0.475 0.825 0.275C1.00833 0.0916667 1.24167 0 1.525 0C1.80833 0 2.04167 0.0916667 2.225 0.275L19.225 17.275C19.4083 17.4583 19.5042 17.6875 19.5125 17.9625C19.5208 18.2375 19.425 18.475 19.225 18.675C19.0417 18.8583 18.8083 18.95 18.525 18.95C18.2417 18.95 18.0083 18.8583 17.825 18.675ZM10.725 12.775C10.9083 12.775 11.0833 12.7667 11.25 12.75C11.4167 12.7333 11.5833 12.7 11.75 12.65L6.35 7.25C6.3 7.41667 6.26667 7.58333 6.25 7.75C6.23333 7.91667 6.225 8.09167 6.225 8.275C6.225 9.525 6.6625 10.5875 7.5375 11.4625C8.4125 12.3375 9.475 12.775 10.725 12.775ZM10.725 0.775C12.9583 0.775 15.0042 1.37917 16.8625 2.5875C18.7208 3.79583 20.175 5.38333 21.225 7.35C21.3083 7.48333 21.3708 7.62917 21.4125 7.7875C21.4542 7.94583 21.475 8.10833 21.475 8.275C21.475 8.44167 21.4583 8.60417 21.425 8.7625C21.3917 8.92083 21.3333 9.06667 21.25 9.2C20.9333 9.81667 20.5792 10.4 20.1875 10.95C19.7958 11.5 19.3583 12.0167 18.875 12.5C18.6417 12.7333 18.3667 12.8417 18.05 12.825C17.7333 12.8083 17.4583 12.6833 17.225 12.45L15.225 10.45C15.1083 10.3333 15.0333 10.1958 15 10.0375C14.9667 9.87917 14.975 9.71667 15.025 9.55C15.0917 9.33333 15.1417 9.125 15.175 8.925C15.2083 8.725 15.225 8.50833 15.225 8.275C15.225 7.025 14.7875 5.9625 13.9125 5.0875C13.0375 4.2125 11.975 3.775 10.725 3.775C10.4917 3.775 10.275 3.79167 10.075 3.825C9.875 3.85833 9.66667 3.90833 9.45 3.975C9.28333 4.025 9.11667 4.03333 8.95 4C8.78333 3.96667 8.64167 3.89167 8.525 3.775L7.7 2.95C7.38333 2.63333 7.27917 2.26667 7.3875 1.85C7.49583 1.43333 7.75833 1.16667 8.175 1.05C8.59167 0.966667 9.0125 0.9 9.4375 0.85C9.8625 0.8 10.2917 0.775 10.725 0.775ZM12.7 6.425C12.8833 6.64167 13.0375 6.87917 13.1625 7.1375C13.2875 7.39583 13.3667 7.66667 13.4 7.95C13.4167 8.08333 13.3667 8.175 13.25 8.225C13.1333 8.275 13.025 8.25 12.925 8.15L10.875 6.1C10.775 6 10.7542 5.89167 10.8125 5.775C10.8708 5.65833 10.9667 5.6 11.1 5.6C11.4167 5.63333 11.7083 5.72083 11.975 5.8625C12.2417 6.00417 12.4833 6.19167 12.7 6.425Z" fill="var(--fill-0, #16191C)"/>
</svg>
